<svg xmlns="http://www.w3.org/2000/svg" xmlns:xlink="http://www.w3.org/1999/xlink" width="15" height="15" viewBox="0 0 15 15">
    <defs>
        <path id="a" d="M7.5 15a7.5 7.5 0 1 1 0-15 7.5 7.5 0 0 1 0 15zm0-5a2.5 2.5 0 1 0 0-5 2.5 2.5 0 0 0 0 5z"/>
        <path id="c" d="M7.5 13a5.5 5.5 0 1 1 0-11 5.5 5.5 0 0 1 0 11zm0-3a2.5 2.5 0 1 0 0-5 2.5 2.5 0 0 0 0 5z"/>
    </defs>
    <g fill="none" fill-rule="evenodd">
        <mask id="b" fill="#fff">
            <use xlink:href="#a"/>
        </mask>
        <path fill="#000" d="M6-1h3v17H6z" mask="url(#b)"/>
        <path fill="#000" d="M6-1h3v17H6z" mask="url(#b)" transform="rotate(90 7.5 7.5)"/>
        <path fill="#000" d="M6-1h3v17H6z" mask="url(#b)" transform="rotate(45 7.5 7.5)"/>
        <path fill="#000" d="M6-1h3v17H6z" mask="url(#b)" transform="scale(-1 1) rotate(45 0 -10.607)"/>
        <use fill="#000" xlink:href="#c"/>
    </g>
</svg>
